<svg xmlns="http://www.w3.org/2000/svg" xmlns:xlink="http://www.w3.org/1999/xlink" version="1.1" x="0px" y="0px" viewBox="0 0 432 288" enable-background="new 0 0 432 288" xml:space="preserve">
<g>
<path d="M149.8,156.7l58.8,101.1h4.6v3.7h-40.3v-56.2l-8.9-15.3v87.3h2.6v4h-4.6v2.9h12.7v-2.9h-4.6v-4h2.9v-10.1H216   c-2.2,0-4,1.8-4,4c0,2.2,1.8,4,4,4s4-1.8,4-4c0-2.2-1.8-4-4-4h43.5v10.1h2.9v4h-4.6v2.9h12.4v-2.9h-4.6v-4h2.6v-87.3l-8.6,15.3   v56.2h-40.6v-3.7h4.6l58.8-101.1v-0.9H149.8V156.7z"></path>
<path d="M275.9,35.1c0-4.6-4.6-8.6-12.1-11.8V11.5c0-3.2-2.6-5.8-5.8-5.8h-33.4c-3.2,0-5.8,2.6-5.8,5.8v4.3c-0.9,0-2,0-2.9,0   c-1.2,0-2,0-2.9,0v-4.3c0-3.2-2.6-5.8-5.8-5.8H174c-3.2,0-5.8,2.6-5.8,5.8v11.8c-7.5,3.2-11.8,7.2-11.8,11.8c0,0.6-1.7,2-3.5,3.2   h126.4C277.9,37.2,275.9,35.7,275.9,35.1z M207.4,16.1c-13,0.6-24.5,2.3-33.4,5.2v-9.8h33.4V16.1z M258,21   c-8.9-2.9-20.4-4.6-33.4-5.2v-4.3H258V21z"></path>
<rect x="149.8" y="42.3" width="132.5" height="109.4"></rect>
</g>
</svg>
