<svg xmlns="http://www.w3.org/2000/svg" xmlns:xlink="http://www.w3.org/1999/xlink" version="1.1" x="0px" y="0px" viewBox="0 0 100 100" enable-background="new 0 0 100 100" xml:space="preserve">
  <path fill="#49a37f" d="M40.057,64.101c3.21,6.148,8.674,11.381,9.943,11.381s6.732-5.233,9.943-11.381  c-2.937-1.633-5.632-3.735-7.434-6.389c-0.04-0.059-0.074-0.119-0.11-0.178c-0.886,0.44-1.703,0.695-2.398,0.695  c-0.695,0-1.512-0.255-2.398-0.695c-0.037,0.059-0.07,0.118-0.11,0.177C45.689,60.366,42.995,62.469,40.057,64.101z"/>
  <path fill="#49a37f" d="M53.093,19.447V8.093C53.093,6.384,51.708,5,50,5s-3.093,1.384-3.093,3.093v11.354  c-11.382,1.248-25.788,9.222-26.245,24.844c2.027,0.666,9.066,0.561,15.313-3.28l2.146-1.321l1.029,2.299  C41.628,47.531,48.154,53.322,50,53.797c1.845-0.475,8.372-6.264,10.852-11.807l1.029-2.299l2.146,1.321  c6.245,3.842,13.288,3.944,15.313,3.28C78.882,28.669,64.475,20.695,53.093,19.447z"/>
  <path fill="#49a37f" d="M63.77,45.921c-1.884,3.173-4.85,6.655-7.728,9.104c0.044,0.068,0.075,0.137,0.121,0.205  c4.085,6.017,15.257,8.97,18.953,8.97c0.531,0,0.908-0.061,1.087-0.183c1.037-0.704,2.616-8.309,1.609-15.054  c-0.446,0.031-0.914,0.047-1.399,0.047C72.769,49.01,68.125,48.105,63.77,45.921z"/>
  <path fill="#49a37f" d="M24.883,64.199c3.695,0,14.868-2.952,18.953-8.97c0.046-0.068,0.077-0.137,0.121-0.205  c-2.877-2.449-5.843-5.931-7.727-9.104c-4.357,2.183-9.004,3.088-12.649,3.088c-0.483,0-0.949-0.016-1.394-0.047  c-1.007,6.745,0.572,14.351,1.609,15.055C23.975,64.138,24.352,64.199,24.883,64.199z"/>
  <path fill="#49a37f" d="M33.118,81.14c0.046,0.012,0.101,0.018,0.162,0.018c1.243,0,5.558-2.375,9.401-5.868  c-2.931-3.156-5.485-7.119-6.541-9.142L36.064,66c-3.477,1.397-6.908,2.199-9.333,2.487C28.233,74.831,31.963,80.842,33.118,81.14z"/>
  <path fill="#49a37f" d="M66.72,81.157c0.062,0,0.116-0.006,0.162-0.018c1.154-0.298,4.884-6.309,6.387-12.652  c-2.425-0.289-5.856-1.09-9.333-2.487l-0.077,0.147c-1.056,2.023-3.61,5.986-6.541,9.142C61.161,78.782,65.476,81.157,66.72,81.157z  "/><g>
  <path fill="#49a37f" d="M54.346,78.559l-0.314-0.285c-1.384,0.998-2.762,1.627-4.033,1.627c-1.271,0-2.649-0.63-4.033-1.627   l-0.314,0.285c-1.315,1.195-3.444,2.914-5.705,4.351C42.826,89.278,48.71,95,50,95c1.29,0,7.174-5.722,10.051-12.089   C57.79,81.473,55.661,79.755,54.346,78.559z"/></g>
</svg>
