<!-- Generator: Adobe Illustrator 17.0.0, SVG Export Plug-In  -->
<svg version="1.1"
	 xmlns="http://www.w3.org/2000/svg" xmlns:xlink="http://www.w3.org/1999/xlink" xmlns:a="http://ns.adobe.com/AdobeSVGViewerExtensions/3.0/"
	 x="0px" y="0px" width="105px" height="40px" viewBox="0 0 105 40" enable-background="new 0 0 105 40" xml:space="preserve">
<defs>
</defs>
<g>
	<path d="M72.357,29.32c0,0.319,0.278,0.6,0.593,0.6h1.858V13.602l-2.451,1.239V29.32z"/>
	<path d="M87.295,18.359c-1.977,0-4.032,1.042-5.059,2.561v8.4c0,0.319,0.278,0.6,0.593,0.6h1.858V21.92
		c0.591-0.759,1.541-1.239,2.608-1.239c1.699,0,2.923,1.359,2.923,3.159v6.08h2.411v-6.16C92.63,20.681,90.337,18.359,87.295,18.359
		"/>
	<path d="M47.224,26.159V20.88h3.161v-2.2h-3.161v-3.398l-2.451,1.239v10.161c0,2.079,1.225,3.24,3.399,3.24h3.161v-2.12h-2.528
		C47.618,27.801,47.224,27.359,47.224,26.159"/>
	<path d="M58.21,18.481c-2.094,0-4.307,1.12-5.414,2.76v12.318c0,0.321,0.276,0.6,0.593,0.6h1.856V22.241
		c0.593-0.881,1.7-1.441,2.925-1.441c1.896,0,3.28,1.441,3.28,3.48c0,2.001-1.384,3.521-3.28,3.521h-1.739v2.12h1.779
		c3.28,0,5.69-2.36,5.69-5.64C63.899,20.96,61.45,18.481,58.21,18.481"/>
	<path d="M79.748,29.92V18.68h-2.451v10.64c0,0.319,0.278,0.6,0.593,0.6H79.748z"/>
	<path d="M105,29.92l-5.178-5.919l4.624-5.321h-2.887l-4.147,4.96V13.602l-2.451,1.239v14.44c0,0.359,0.276,0.64,0.593,0.64h1.858
		v-5.6l4.583,5.6H105z"/>
	<polygon points="66.864,25.521 70.184,25.521 70.184,23.04 65.678,23.04 	"/>
	<path d="M78.522,13.361c-0.908,0-1.66,0.721-1.66,1.64c0,0.44,0.157,0.799,0.434,1.08h2.451c0.276-0.281,0.434-0.64,0.434-1.08
		C80.182,14.081,79.431,13.361,78.522,13.361"/>
	<path fill="#4ACBD6" d="M25.054,0c-8.259,0-14.857,6.64-14.857,14.839v3.161h8.297v-3.161c0-3.559,2.885-6.439,6.56-6.439
		c3.635,0,6.165,2.559,6.165,6.359c0,3.761-2.727,6.521-6.364,6.521h-3.121v8.398h3.121c8.103,0,14.663-6.678,14.663-14.92
		C39.518,6.2,33.393,0,25.054,0"/>
	<path fill="#4ACBD6" d="M0,27.84c0,1.04,0.869,2.08,2.054,2.08h7.904v8.001c0,1.04,0.869,2.08,2.054,2.08h6.758V21H0V27.84z"/>
</g>
</svg>
