<svg xmlns="http://www.w3.org/2000/svg" xmlns:xlink="http://www.w3.org/1999/xlink" version="1.1" x="0px" y="0px" viewBox="0 0 50 50" enable-background="new 0 0 50 50" xml:space="preserve">
  <path fill="#3498DB" d="M24.8,0.9c-0.4-0.5-1.2-0.5-1.6,0C19.8,5.3,7.1,22.5,7.1,30.6c0,9.3,7.6,16.9,16.9,16.9s16.9-7.6,16.9-16.9  C40.9,22.5,28.2,5.3,24.8,0.9z M29.7,41.6c-0.2,0.1-0.4,0.1-0.6,0.1c-0.6,0-1.2-0.4-1.4-0.9c-0.3-0.8,0.1-1.6,0.8-2  c5.9-2.4,5.4-9.6,5.3-9.7c-0.1-0.8,0.5-1.6,1.4-1.6c0.8-0.1,1.6,0.5,1.6,1.4C37.2,32.1,36,39,29.7,41.6z"/>
</svg>
