<svg xmlns="http://www.w3.org/2000/svg" xmlns:xlink="http://www.w3.org/1999/xlink" version="1.1" x="0px" y="0px" viewBox="0 0 100 100" enable-background="new 0 0 100 100" xml:space="preserve">
  <path fill="rgba(240,209,78,1)" d="M53.667,26.003L50,20.984l-3.667,5.019c-3.019,4.132-3.019,9.742,0,13.874L50,44.896  l3.667-5.019C56.686,35.745,56.686,30.135,53.667,26.003z"/>
  <path fill="rgba(240,209,78,1)" d="M52.114,19.439l2.425,3.318V6.339c0-0.723-0.586-1.309-1.309-1.309  c-0.723,0-1.309,0.586-1.309,1.309v12.892C51.984,19.301,52.057,19.362,52.114,19.439z"/>
  <path fill="rgba(240,209,78,1)" d="M47.886,19.439c0.057-0.078,0.13-0.138,0.194-0.208V6.339c0-0.723-0.586-1.309-1.309-1.309  c-0.723,0-1.309,0.586-1.309,1.309v16.418L47.886,19.439z"/>
  <path fill="rgba(240,209,78,1)" d="M41.621,38.064V11.496c0-0.723-0.586-1.309-1.309-1.309c-0.723,0-1.309,0.586-1.309,1.309  v25.259L41.621,38.064z"/>
  <path fill="rgba(240,209,78,1)" d="M33.715,34.111l1.447,0.724V19.301c0-0.723-0.586-1.309-1.309-1.309  c-0.723,0-1.309,0.586-1.309,1.309v14.224L33.715,34.111z"/>
  <path fill="rgba(240,209,78,1)" d="M60.997,36.754V11.496c0-0.723-0.586-1.309-1.309-1.309c-0.723,0-1.309,0.586-1.309,1.309  v26.568L60.997,36.754z"/>
  <path fill="rgba(240,209,78,1)" d="M66.285,34.11l1.171-0.585V19.301c0-0.723-0.586-1.309-1.309-1.309  s-1.309,0.586-1.309,1.309v15.533L66.285,34.11z"/>
  <path fill="rgba(240,209,78,1)" d="M57.95,71.319c-4.043,2.022-6.597,6.154-6.597,10.675c0,0.747-0.606,1.353-1.353,1.353  c-0.747,0-1.353-0.606-1.353-1.353l0,0c0-4.52-2.554-8.653-6.597-10.674l-9.506-4.753v4.702c0,4.52,2.554,8.653,6.597,10.675  l9.026,4.513v6.332C48.167,94.01,48.988,95,50,95c1.012,0,1.833-0.99,1.833-2.213v-6.332l9.027-4.513  c4.043-2.022,6.597-6.154,6.597-10.675v-4.702L57.95,71.319z"/>
  <path fill="rgba(240,209,78,1)" d="M51.353,71.638l9.506-4.753c4.043-2.022,6.597-6.154,6.597-10.675v-4.702l-9.506,4.753  c-4.043,2.022-6.597,6.154-6.597,10.675V71.638z"/>
  <path fill="rgba(240,209,78,1)" d="M48.647,71.639l-9.506-4.753c-4.043-2.022-6.597-6.154-6.597-10.675v-4.702l9.506,4.753  c4.043,2.022,6.597,6.154,6.597,10.675V71.639z"/>
  <path fill="rgba(240,209,78,1)" d="M51.353,56.582l9.506-4.753c4.043-2.022,6.597-6.154,6.597-10.675v-4.702l-9.506,4.753  c-4.043,2.022-6.597,6.154-6.597,10.675V56.582z"/>
  <path fill="rgba(240,209,78,1)" d="M48.647,56.582l-9.506-4.753c-4.043-2.022-6.597-6.154-6.597-10.675v-4.702l9.506,4.753  c4.043,2.022,6.597,6.154,6.597,10.675V56.582z"/>
</svg>
